<?xml version="1.0" encoding="utf-8"?>
<!-- Generator: Adobe Illustrator 16.0.0, SVG Export Plug-In . SVG Version: 6.00 Build 0)  -->
<!DOCTYPE svg PUBLIC "-//W3C//DTD SVG 1.1//EN" "http://www.w3.org/Graphics/SVG/1.1/DTD/svg11.dtd">
<svg version="1.1" xmlns="http://www.w3.org/2000/svg" xmlns:xlink="http://www.w3.org/1999/xlink" x="0px" y="0px" width="100px"
	 height="100px" viewBox="394 154 27 27" enable-background="new 0 0 576 2016" xml:space="preserve">
<g id="background">
	<g id="search_1_">
		<path d="M419.602,176.755l-5.878-5.879c0.956-1.481,1.521-3.24,1.521-5.132c0-5.235-4.262-9.494-9.496-9.494
			c-5.236,0-9.494,4.259-9.494,9.494c0,5.236,4.258,9.495,9.494,9.495c1.891,0,3.649-0.562,5.132-1.519l5.878,5.878
			c0.195,0.196,0.518,0.196,0.712,0l2.132-2.132C419.799,177.271,419.799,176.951,419.602,176.755z M399.27,165.744
			c0-3.571,2.906-6.479,6.479-6.479c3.573,0,6.479,2.907,6.479,6.479c0,3.573-2.905,6.479-6.479,6.479
			C402.176,172.224,399.27,169.317,399.27,165.744z"/>
	</g>
</g>
</svg>
